<svg id="Layer_1" data-name="Layer 1" xmlns="http://www.w3.org/2000/svg" viewBox="0 0 200 200"><defs><style>.cls-1{fill:#ee509c;}.cls-2{fill:#fff;}</style></defs><circle class="cls-1" cx="100" cy="100" r="75"/><path class="cls-2" d="M114,103.82a1.68,1.68,0,0,0-1.9,1.42c-.46,3.09-3.07,5.65-7,6.85-4.18,1.29-10,.86-13.54-3a1.67,1.67,0,1,0-2.46,2.27,14.73,14.73,0,0,0,8.06,4.4,17.61,17.61,0,0,0,3.5.35,18.41,18.41,0,0,0,5.43-.81c5.18-1.59,8.66-5.17,9.31-9.56A1.67,1.67,0,0,0,114,103.82Z"/><path class="cls-2" d="M137.27,89A20.7,20.7,0,0,0,125,82.29a94.46,94.46,0,0,0,12-9.36c4.54-4.32,6.06-7.36,4.79-9.56-1.41-2.45-5.49-2.43-12.84.05A129.08,129.08,0,0,0,107.12,73.7c-1.35.78-2.69,1.58-4,2.39a9,9,0,0,1,1.81-8.61,6.4,6.4,0,0,0,.94-6.76,6.78,6.78,0,0,0-6.35-3.58h-.07A41.52,41.52,0,0,0,71.32,68.49,42.14,42.14,0,0,0,57.64,95.8a43,43,0,0,0,42.68,47.06,45.65,45.65,0,0,0,17.93-3.5,40.12,40.12,0,0,0,13.2-9,39.65,39.65,0,0,0,8.17-12.21,35.41,35.41,0,0,0,2.91-13.23C142.62,98.61,140.8,93.11,137.27,89Zm-34-9.11c1.77-1.12,3.62-2.23,5.49-3.31a128.62,128.62,0,0,1,20.32-9.7c6.44-2.29,9.08-2.14,9.7-1.84-.06.39-.54,2.12-4.77,6a106.89,106.89,0,0,1-14.53,10.77c-1.84,1.17-3.76,2.33-5.7,3.45-2.68,1.54-5.35,3-8,4.31a24.82,24.82,0,0,0-2-4.43,25.51,25.51,0,0,0-2.73-3.85C101.82,80.86,102.56,80.38,103.31,79.91Zm-.5,11.18a85.9,85.9,0,0,1-12.53,5,8.27,8.27,0,0,0-2.52-4.46A85.33,85.33,0,0,1,98.3,83.22a22,22,0,0,1,4.51,7.87Zm36.37,13.78c-.24,16.66-15.16,34.64-38.86,34.64A39.66,39.66,0,0,1,61,96.09c1.69-19.63,19-35.6,38.48-35.6h.07a3.46,3.46,0,0,1,3.33,1.69,3,3,0,0,1-.55,3.22,12.3,12.3,0,0,0-2.07,12.5c-.89.58-1.78,1.16-2.63,1.74h0A89.63,89.63,0,0,0,84.78,89.82a8.32,8.32,0,0,0-6.88.67c-3.48,2-8.05,11.37-8.93,13.23a1.67,1.67,0,0,0,.07,1.55,1.63,1.63,0,0,0,1.31.83c.93.08,3.55.27,6.48.27,3.55,0,7.53-.28,9.44-1.38a8.32,8.32,0,0,0,4-5.48,87.76,87.76,0,0,0,15.28-6c3.26-1.59,6.61-3.37,9.95-5.3,1.7-1,3.38-2,5-3h0C134.48,85.59,139.31,95.62,139.18,104.87ZM87.1,98.05a5,5,0,0,1-2.5,4c-1.59.91-7,1-11.49.83,2-4,4.88-8.62,6.46-9.53a5,5,0,0,1,4.84-.1,4.9,4.9,0,0,1,2,1.94A5,5,0,0,1,87.1,98.05Z"/><path class="cls-2" d="M86.93,67.5a6.7,6.7,0,1,0,6.7,6.69A6.7,6.7,0,0,0,86.93,67.5Zm0,10a3.35,3.35,0,1,1,3.35-3.35A3.35,3.35,0,0,1,86.93,77.54Z"/><path class="cls-2" d="M78.56,112.48a6.7,6.7,0,1,0,6.69,6.7A6.71,6.71,0,0,0,78.56,112.48Zm0,10a3.35,3.35,0,1,1,3.35-3.35A3.36,3.36,0,0,1,78.56,122.53Z"/><path class="cls-2" d="M95.3,122.53a6.7,6.7,0,1,0,6.7,6.69A6.7,6.7,0,0,0,95.3,122.53Zm0,10a3.35,3.35,0,1,1,3.35-3.35A3.35,3.35,0,0,1,95.3,132.57Z"/><path class="cls-2" d="M115.39,119.18a6.7,6.7,0,1,0,6.7,6.69A6.7,6.7,0,0,0,115.39,119.18Zm0,10a3.35,3.35,0,1,1,3.35-3.35A3.35,3.35,0,0,1,115.39,129.22Z"/><path class="cls-2" d="M128.78,102.44a6.7,6.7,0,1,0,6.7,6.69A6.7,6.7,0,0,0,128.78,102.44Zm0,10a3.35,3.35,0,1,1,3.35-3.35A3.36,3.36,0,0,1,128.78,112.48Z"/></svg>