<svg id="Layer_1" data-name="Layer 1" xmlns="http://www.w3.org/2000/svg" viewBox="0 0 200 200"><defs><style>.cls-1{fill:#82c55b;}.cls-2{fill:#fff;}</style></defs><circle class="cls-1" cx="100" cy="100" r="75"/><path class="cls-2" d="M74.73,118.91A25.8,25.8,0,0,1,89.06,90.35a1.25,1.25,0,0,0,.72-1.13V74.9a1.25,1.25,0,0,0-2.5,0V88.44a28.29,28.29,0,0,0-15,31,1.25,1.25,0,0,0,1.22,1,1.07,1.07,0,0,0,.25,0A1.24,1.24,0,0,0,74.73,118.91Z"/><path class="cls-2" d="M110.22,74.9v5.68a1.25,1.25,0,1,0,2.5,0V74.9a1.25,1.25,0,0,0-2.5,0Z"/><path class="cls-2" d="M123.75,98.34a28.35,28.35,0,0,0-11-9.9v-3.7a1.25,1.25,0,1,0-2.5,0v4.48a1.25,1.25,0,0,0,.72,1.13,25.8,25.8,0,1,1-34.71,33.4,1.24,1.24,0,1,0-2.29,1,28.29,28.29,0,1,0,49.81-26.38Z"/><path class="cls-2" d="M88.21,72h23.58a7,7,0,0,0,0-14H88.21a7,7,0,0,0,0,14Zm0-11.49h23.58a4.5,4.5,0,1,1,0,9H88.21a4.5,4.5,0,1,1,0-9Z"/><path class="cls-2" d="M91.57,103.42a11,11,0,0,0-9.94,1.43A10.79,10.79,0,0,0,77,113.46v.25a23,23,0,1,0,46,0v-.13a14.81,14.81,0,0,0-4.44-10.52A15.05,15.05,0,0,0,108,98.68a21.68,21.68,0,0,0-11.88,3.16A1.25,1.25,0,0,0,97.47,104a19.21,19.21,0,0,1,10.36-2.77H108a12.66,12.66,0,0,1,10,5,5.76,5.76,0,0,1-6.58,7.24c-4.27-.8-7.86-3.15-11.34-5.42A38.45,38.45,0,0,0,91.57,103.42Zm27.09,9.83a8.47,8.47,0,0,0,1.52-2.49,12,12,0,0,1,.34,2.83v.12a20.53,20.53,0,1,1-41,0c0-.06,0-.12,0-.18a8.32,8.32,0,0,1,3.58-6.64A8.6,8.6,0,0,1,88,105.33a8.72,8.72,0,0,1,2.79.46,36.09,36.09,0,0,1,7.94,4.32c3.68,2.41,7.49,4.9,12.25,5.8A8.15,8.15,0,0,0,118.66,113.25Z"/><path class="cls-2" d="M114.77,120.73a1.24,1.24,0,0,0,2.35-.14,1.25,1.25,0,0,0-2-1.33A1.26,1.26,0,0,0,114.77,120.73Z"/><path class="cls-2" d="M102.46,105.85a1.23,1.23,0,0,0,1.25.53,1.24,1.24,0,0,0,.43-2.29,1.25,1.25,0,0,0-1.68,1.76Z"/><path class="cls-2" d="M95.41,118.87a1.25,1.25,0,0,0-1.52.1,1.27,1.27,0,0,0-.32,1.41,1.25,1.25,0,1,0,1.84-1.51Z"/></svg>